<svg xmlns="http://www.w3.org/2000/svg" version="1.1" xmlns:xlink="http://www.w3.org/1999/xlink" xmlns:svgjs="http://svgjs.dev/svgjs" width="1000" height="1000"><g clip-path="url(#SvgjsClipPath1024)"><rect width="1000" height="1000" fill="#282828"></rect><g transform="matrix(1.75,0,0,1.75,150,150)"><svg xmlns="http://www.w3.org/2000/svg" version="1.1" xmlns:xlink="http://www.w3.org/1999/xlink" xmlns:svgjs="http://svgjs.dev/svgjs" width="400" height="400"><svg width="400" height="400" viewBox="0 0 400 400" fill="none" xmlns="http://www.w3.org/2000/svg">
<path d="M120.891 343.738L120.904 343.745L120.917 343.751C130.429 348.613 141.302 351 153.457 351H175.185H178.185V348V311.511V308.511H175.185H159.125C152.333 308.511 147.228 306.785 143.5 303.62C140.088 300.352 138.327 295.823 138.505 289.633L141.65 240.621C141.65 240.619 141.65 240.617 141.65 240.616C142.541 227.253 138.502 216.257 129.355 208.018C125.668 204.531 121.42 201.797 116.639 199.792C121.56 197.829 125.913 195.131 129.669 191.668C138.605 183.428 142.542 172.541 141.65 159.381C141.65 159.379 141.65 159.378 141.65 159.376L138.502 110.331C138.115 103.129 139.888 98.5678 143.091 95.8315C146.809 92.8377 152.043 91.1743 159.125 91.1743H175.185H178.185V88.1743V52V49H175.185H153.457C141.322 49 130.468 51.2744 120.967 55.9095L120.954 55.9156L120.941 55.9219C111.617 60.5789 104.444 67.2785 99.5162 76.0041C94.5619 84.7772 92.495 95.123 93.15 106.9L93.1507 106.912L93.1515 106.924L96.3004 156.31L96.3015 156.327L96.3028 156.344C96.8942 164.221 95.1849 169.655 91.7698 173.237L91.7433 173.265L91.7176 173.293C88.5695 176.769 82.7967 178.913 73.4728 178.913H36H33V181.913V218.087V221.087H36H73.4728C82.7967 221.087 88.5695 223.231 91.7176 226.707L91.7433 226.735L91.7698 226.763C95.1736 230.333 96.8968 235.862 96.3024 243.976L96.3016 243.987L96.3008 243.998L93.1519 291.811L93.1508 291.828L93.1498 291.845C92.4964 303.812 94.5553 314.26 99.5077 323.037C104.422 331.957 111.578 338.865 120.891 343.738ZM221.815 348V351H224.815H246.543C258.691 351 269.467 348.615 278.782 343.744C288.298 338.878 295.569 331.972 300.491 323.039C305.444 314.261 307.504 303.813 306.85 291.845L306.849 291.828L306.848 291.811L303.699 243.998L303.698 243.987L303.698 243.976C303.103 235.862 304.826 230.333 308.23 226.763C311.615 223.212 317.456 221.087 326.527 221.087H364H367V218.087V181.913V178.913H364H326.527C317.456 178.913 311.615 176.788 308.23 173.237C304.815 169.655 303.106 164.221 303.697 156.344L303.698 156.327L303.7 156.31L306.849 106.924L306.849 106.912L306.85 106.9C307.505 95.123 305.438 84.7772 300.484 76.0041C295.548 67.2632 288.258 60.5662 278.731 55.9157C269.428 51.2717 258.67 49 246.543 49H224.815H221.815V52V88.1743V91.1743H224.815H240.875C247.986 91.1743 253.083 92.8502 256.568 95.8086L256.595 95.8319L256.623 95.8545C260.024 98.605 261.883 103.157 261.498 110.332C261.497 110.337 261.497 110.341 261.497 110.346L258.35 159.376C258.35 159.378 258.35 159.381 258.35 159.383C257.458 172.542 261.396 183.428 270.331 191.668L270.345 191.681L270.359 191.693C274.16 195.11 278.509 197.784 283.382 199.739C278.495 201.75 274.136 204.502 270.329 208.02C261.383 216.27 257.46 227.267 258.35 240.616C258.35 240.617 258.35 240.619 258.35 240.621L261.498 289.674C261.498 289.675 261.498 289.676 261.498 289.678C261.871 295.839 260.122 300.332 256.527 303.597C252.797 306.776 247.684 308.511 240.875 308.511H224.815H221.815V311.511V348Z" fill="#EBDBB2" stroke="#282828" stroke-width="6"></path>
</svg></svg></g></g><defs><clipPath id="SvgjsClipPath1024"><rect width="1000" height="1000" x="0" y="0" rx="350" ry="350"></rect></clipPath></defs></svg>